<?xml version="1.0" encoding="UTF-8"?>
<svg id="Layer_1" data-name="Layer 1" xmlns="http://www.w3.org/2000/svg" version="1.1" xmlns:xlink="http://www.w3.org/1999/xlink" viewBox="0 0 500 250">
  <defs>
    <style>
      .cls-1 {
        fill: url(#linear-gradient);
      }

      .cls-1, .cls-2, .cls-3, .cls-4, .cls-5, .cls-6 {
        stroke-width: 0px;
      }

      .cls-2 {
        fill: url(#linear-gradient-5);
      }

      .cls-3 {
        fill: url(#linear-gradient-2);
      }

      .cls-4 {
        fill: url(#linear-gradient-3);
      }

      .cls-5 {
        fill: #5d1747;
      }

      .cls-6 {
        fill: url(#linear-gradient-4);
      }
    </style>
    <linearGradient id="linear-gradient" x1="15.5" y1="184.4" x2="128.7" y2="184.4" gradientTransform="translate(0 252) scale(1 -1)" gradientUnits="userSpaceOnUse">
      <stop offset="0" stop-color="#c10275"/>
      <stop offset="1" stop-color="#5d1747"/>
    </linearGradient>
    <linearGradient id="linear-gradient-2" x1="13" y1="168.7" x2="126.2" y2="168.7" gradientTransform="translate(0 252) scale(1 -1)" gradientUnits="userSpaceOnUse">
      <stop offset="0" stop-color="#c10275"/>
      <stop offset="1" stop-color="#5d1747"/>
    </linearGradient>
    <linearGradient id="linear-gradient-3" x1="10.4" y1="153" x2="123.6" y2="153" gradientTransform="translate(0 252) scale(1 -1)" gradientUnits="userSpaceOnUse">
      <stop offset="0" stop-color="#c10275"/>
      <stop offset="1" stop-color="#5d1747"/>
    </linearGradient>
    <linearGradient id="linear-gradient-4" x1="7.7" y1="137.4" x2="120.9" y2="137.4" gradientTransform="translate(0 252) scale(1 -1)" gradientUnits="userSpaceOnUse">
      <stop offset="0" stop-color="#c10275"/>
      <stop offset="1" stop-color="#5d1747"/>
    </linearGradient>
    <linearGradient id="linear-gradient-5" x1="5" y1="121.8" x2="118.3" y2="121.8" gradientTransform="translate(0 252) scale(1 -1)" gradientUnits="userSpaceOnUse">
      <stop offset="0" stop-color="#c10275"/>
      <stop offset="1" stop-color="#5d1747"/>
    </linearGradient>
  </defs>
  <g>
    <path class="cls-1" d="M15.5,62.1s9.3,12.6,40,4.5,51.5-16.9,73.2-5.1l-2.1,11.4s-14.1-11.1-48.2-1.5c-33.4,9.3-60.2,15.1-62.9-9.3Z"/>
    <path class="cls-3" d="M12.8,77.8s9.3,12.6,40,4.5c30.7-8.1,51.5-16.9,73.2-5.1l-1.8,11.4s-14.1-11.1-48.2-1.5c-33.7,9.3-60.2,15.1-63.2-9.3Z"/>
    <path class="cls-4" d="M10.4,93.4s9.3,12.6,40,4.5c30.7-8.1,51.5-16.9,73.2-5.1l-2.1,11.4s-14.1-11.1-48.2-1.5c-33.7,9.3-60.2,15.1-62.9-9.3Z"/>
    <path class="cls-6" d="M7.7,109.1s9.3,12.6,40,4.5c30.7-8.1,51.5-16.9,73.2-5.1l-2.1,11.4s-14.1-11.1-48.2-1.5c-33.4,9.3-60.2,15.1-62.9-9.3Z"/>
    <path class="cls-2" d="M5,124.4s9.3,12.6,40,4.5c31-7.8,51.8-16.6,73.5-5.1l-2.1,11.4s-14.1-11.1-48.2-1.5c-33.7,9.6-60.5,15.4-63.2-9.3Z"/>
  </g>
  <g>
    <polygon class="cls-5" points="144.1 72.7 132.9 135.9 144.7 135.9 152.5 89.2 168.5 135.9 183.2 135.9 194.4 72.7 182.6 72.7 174.5 120.8 158.8 72.7 144.1 72.7"/>
    <path class="cls-5" d="M234.1,101c0,12.3-19.3,17.2-19.3,17.2l-7.5,2.1-.6,3.6c-.6,3.6,4.2,3.3,4.2,3.3,6.3,0,16.9-5.4,16.9-5.4l2.7,8.7s-6.6,6-22.6,6-12.6-15.1-12.6-15.1c0,0,.9-5.1,3.3-18.4,2.4-13.5,16.9-14.5,16.9-14.5,5.7-.3,18.7,0,18.7,12.3ZM217.2,107.3s6-1.5,6-5.7-5.1-3.9-5.1-3.9c-7.2,0-8.1,7.2-8.1,7.2l-1.2,5.1,8.4-2.7Z"/>
    <path class="cls-5" d="M468,101c0,12.3-19.3,17.2-19.3,17.2l-7.5,2.1-.6,3.6c-.6,3.6,4.2,3.3,4.2,3.3,6.3,0,16.9-5.4,16.9-5.4l2.7,8.7s-6.6,6-22.6,6-12.6-15.1-12.6-15.1c0,0,.9-5.1,3.3-18.4,2.4-13.5,16.9-14.5,16.9-14.5,5.7-.3,18.7,0,18.7,12.3ZM451.2,107.3s6-1.5,6-5.7-5.1-3.9-5.1-3.9c-7.2,0-8.1,7.2-8.1,7.2l-1.2,5.1,8.4-2.7Z"/>
    <path class="cls-5" d="M239.2,91s2.7,13.8,3,24.7c.3,10.8,0,20.2,0,20.2h13.2l12.3-22.9,4.8,22.9h13.8l10.2-28.9s3.9-10.8,1.2-18.1l-11.1,2.1s1.8,3.6,0,11.1c-2.1,7.5-6.3,22.9-6.3,22.9l-6.6-35.5-10.5,1.8,1.8,7.2-12.9,25.3s.6-29.2-2.4-34.6l-10.5,1.8Z"/>
    <path class="cls-5" d="M311.8,70.9l-11.1,65h11.4l5.4-30.7s17.2-11.1,15.7-1.5c-1.5,9.6-5.7,32.2-5.7,32.2h11.4l6-34.3s5.7-22.6-25.6-7.2l4.2-25-11.7,1.5Z"/>
    <path class="cls-5" d="M393.1,107l-2.1,12.9s-2.4,16.9-23.5,16.9-16.9-18.4-16.9-18.4c0,0-.9,3.9,2.7-13.5,3.6-17.5,21.7-15.7,21.7-15.7,22-.6,18.1,17.8,18.1,17.8ZM374.7,98.6s-8.4-.9-10.2,7.2c-1.8,8.1-2.4,13.2-2.4,13.2,0,0-2.4,8.1,6.6,8.1s9.9-5.1,10.8-8.4c.9-3.3,2.4-14.1,2.4-14.1,0,0,.9-6.6-7.2-6Z"/>
    <path class="cls-5" d="M408.7,78.1l-1.8,11.4h-7.5l-1.5,9.3h7.2l-4.5,25s-3.9,12.9,8.7,12.9c0,0,9.3-.3,14.8-3.6l-3-7.8s-11.1,6.9-9.3-1.2c1.8-8.1,4.5-25,4.5-25h11.7l1.5-9.3h-11.7l2.1-13.5-11.1,1.8Z"/>
    <polygon class="cls-5" points="481.3 70.9 470.1 135.6 481.6 135.6 493 69.4 481.3 70.9"/>
  </g>
  <g>
    <path class="cls-5" d="M308.2,153.3l-.6,2.7s-15.1-3.3-16.3,2.7-1.2,7.8,1.8,8.7c3,.9,6.3,1.8,6.3,1.8,0,0,6.3,1.2,5.4,7.2-.9,6-1.5,11.1-12.6,11.1,0,0-6,0-9.3-2.1l.9-2.4s4.8,1.5,9,1.5,7.5-.9,8.4-4.8c.9-3.9,1.8-6.9-2.4-8.1-4.2-.9-12.3-2.7-11.4-8.1.9-5.4.9-5.7.9-5.7,0,0,.9-6.3,9.9-5.7,9,.9,9.9,1.2,9.9,1.2Z"/>
    <path class="cls-5" d="M324.1,161.8c9.3.3,7.5,7.8,7.5,7.8,0,0-.9,5.4-1.5,9.9-.9,4.8-4.2,8.7-12.6,8.1-8.7-.6-6.6-8.1-6.6-8.1l1.8-10.5c.6-2.7,2.4-7.5,11.4-7.2ZM315.1,170.8l-1.5,8.1s-1.5,5.7,4.8,6c6.3,0,8.1-2.1,9.3-7.2.9-4.8,1.2-7.5,1.2-7.5,0,0,1.5-6.3-5.4-6-7.2.3-7.8,4.5-8.4,6.6Z"/>
    <path class="cls-5" d="M337.1,162.1l-.3,2.7h4.5l-4.2,24.7s-.9,4.5-3.6,6.6l1.8,2.1s4.2-3.6,4.8-8.1c.6-4.5,4.2-25,4.2-25h12.9l-3,17.8s-2.1,5.4,3.9,5.4c0,0,3.6,0,6.3-1.8l-.6-2.1s-7.2,3.3-6.6-.6c.6-3.9,3.3-18.7,3.3-18.7h7.2l.6-2.7h-7.2l1.2-6.3-3.3.6-.9,6h-12.9l.9-5.4s.3-3.3,4.2-3.3c0,0,2.7.3,4.2.9l.9-2.4s-2.7-1.2-5.1-1.2-6.3.9-7.2,5.7l-.9,5.4h-5.1v-.3Z"/>
    <path class="cls-5" d="M370.5,162.4s2.4,9.6,2.4,16.6v8.4h4.5l8.7-15.7,3,15.7h4.5l5.7-13.5s2.7-6.9,1.5-11.7l-3,.6s1.2,3.9-.6,8.7c-1.5,4.8-5.7,14.1-5.7,14.1l-4.5-23.2-2.7.6.9,5.4-9.6,17.5v-6.9s-.9-12.3-2.1-16.3l-3-.3Z"/>
    <path class="cls-5" d="M425,163.3l-4.2,24.4h-2.7l.6-3.9s-4.8,4.2-9.3,4.2-6.6-.6-5.7-6.3c.9-5.7,2.4-12.9,2.4-12.9,0,0,.9-6.9,8.4-6.9,7.8,0,10.5,1.5,10.5,1.5ZM415.3,164.2c-5.7,0-6.3,5.7-6.3,5.7,0,0-1.5,7.8-2.1,12-.6,4.2,2.4,3.3,2.4,3.3,4.8,0,10.2-5.1,10.2-5.1l2.7-15.1c-.6,0-1.2-.9-6.9-.9Z"/>
    <path class="cls-5" d="M432.8,162.4l-4.2,25h3l3-17.8s4.8-3.6,7.8-5.1v-3s-6.3,3.6-7.5,4.8l.6-4.2-2.7.3Z"/>
    <path class="cls-5" d="M456,161.5s7.2-.9,7.2,5.4-8.4,8.4-8.4,8.4l-7.2,2.1-.6,3.9s-.9,3.9,3.9,3.9,9-2.4,9-2.4l.9,2.4c-4.2,2.7-10.5,2.7-10.5,2.7-7.8.3-6.3-6.6-6.3-6.6l2.1-12.3c1.5-7.5,9.9-7.5,9.9-7.5ZM454.8,164.2s-6-.3-6.9,10.2l7.8-2.1s4.8-1.2,4.8-5.1c0-3.9-5.7-3-5.7-3Z"/>
  </g>
</svg>