<svg xmlns="http://www.w3.org/2000/svg" xmlns:xlink="http://www.w3.org/1999/xlink" version="1.1" id="Layer_1" x="0px" y="0px" viewBox="0 0 1920 599.6" style="enable-background:new 0 0 1920 599.6;" xml:space="preserve">
<style type="text/css">
	.st0{fill:#9c27b0;}
</style>
<g>
	<g>
		<path class="st0" d="M61.7,66.7c0,0,36.3,48.4,154.3,17.6c118-30.8,198.2-64.5,280.9-20.2l-7.6,43.9c0,0-54.5-42.9-184.6-6    C174.6,138.8,72.3,160.5,61.7,66.7z" fill="#000000"/>
		<path class="st0" d="M51.6,126.7c0,0,36.3,48.4,154.3,17.6c118-30.8,198.2-64.6,280.9-20.2l-7.6,43.9c0,0-54.5-42.9-184.6-6.1    C164.5,198.8,62.2,220.5,51.6,126.7z" fill="#000000"/>
		<path class="st0" d="M41.5,186.7c0,0,36.3,48.4,154.3,17.7c118-30.8,198.2-64.6,280.9-20.2l-7.6,43.9c0,0-54.5-42.9-184.6-6.1    C154.5,258.8,52.1,280.5,41.5,186.7z" fill="#000000"/>
		<path class="st0" d="M31.4,246.7c0,0,36.3,48.4,154.3,17.7c118-30.8,198.2-64.6,280.9-20.2l-7.5,43.9c0,0-54.5-42.9-184.6-6    C144.4,318.9,42,340.5,31.4,246.7z" fill="#000000"/>
		<path class="st0" d="M21.3,306.7c0,0,36.3,48.4,154.3,17.7c118-30.8,198.2-64.5,280.9-20.2l-7.6,43.9c0,0-54.5-42.9-184.6-6.1    C134.3,378.9,31.9,400.5,21.3,306.7z" fill="#000000"/>
	</g>
	<g>
		<path class="st0" d="M592.1,164.8l-31.6,179.5h-44l42.5-242h56.3l60,184.2l32.3-184.2h43.6l-42.5,242h-56.7L592.1,164.8z" fill="#000000"/>
		<path class="st0" d="M799.6,292.7c-1.8,10.2-2.2,18.9,13.8,18.9c18.9,0,45.1-8.7,68-20.4l9.5,33.4c-21.4,13.1-54.1,23.3-83.6,23.3    c-46.9,0-56.3-26.2-49.8-63.2l9.4-53.8c7.6-41.8,27.3-67.2,80.7-67.2c33.8,0,56.7,17.4,56.7,46.2c0,31.6-20.7,49.8-69,64.7    c-21.4,6.5-25.8,7.6-34.2,9.8L799.6,292.7z M862.5,211.7c0-8-6.9-13.8-18.5-13.8c-20,0-29.8,12.3-32.7,29.1l-3.3,18.2    c6.2-1.8,8.7-2.5,26.5-8C854.1,231,862.5,223.3,862.5,211.7z" fill="#000000"/>
		<path class="st0" d="M1054.7,166.3l26.9,135.9c0,0,16.4-59.2,24.4-86.5c2.5-8.7,3.3-17.4,3.3-22.5c0-6.2-0.7-12.7-2.9-20.7l41.1-8    c2.5,10.2,3.6,18.9,3.6,28c0,10.9-2.9,24.7-9.4,43.6c-10.5,30.5-37.1,108.3-37.1,108.3h-53l-18.2-88.3l-46.5,88.3h-50.5    c-0.4-74.5-1.8-117-13.1-171.9l41.4-6.5c8,38.1,10.2,80.7,7.3,132.6l50.1-97l-6.2-29.1L1054.7,166.3z" fill="#000000"/>
		<path class="st0" d="M1285.4,218.2c0.4-1.8,0.4-4,0.4-4.7c0-4.7-2.2-7.6-9.1-7.6c-11.6,0-35.6,10.2-52.7,20.7l-20.7,117.7h-43.6    l44-249.3l44.7-6.2l-16.7,94.8c21.8-11.6,47.6-20,67.2-20c24.3,0,32.3,16,32.3,35.3c0,6.9-0.7,11.6-1.8,17.4l-22.5,127.9h-43.6    L1285.4,218.2z" fill="#000000"/>
		<path class="st0" d="M1351.6,290.2c0-4.7,0.4-9.5,1.1-14.2l7.6-42.5c8-43.6,29.4-69.8,88.7-69.8c45.4,0,66.9,25.4,66.9,56.7    c0,4.4-0.4,8.4-1.1,12.7l-8.4,47.2c-7.3,41.4-26.9,67.6-89,67.6C1371.6,348,1351.6,321.4,1351.6,290.2z M1471.5,231    c0.4-2.2,0.7-5.8,0.7-8c0-14.5-9.1-22.5-29.1-22.5c-22.9,0-35.3,10.5-39.2,32.3l-8.4,47.6c-0.4,2.2-0.7,5.4-0.7,8    c0,14.2,8,22.9,29.1,22.9c22.9,0,35.3-10.2,38.9-30.9L1471.5,231z" fill="#000000"/>
		<path class="st0" d="M1543.1,305.1l18.2-102.8h-28.3l6.5-34.9h28l8-45.8l44.7-6.2l-9.1,52h45.1l-6.9,34.9h-44.3l-17.8,101    c-1.1,6.2,0.7,9.1,7.3,9.1c8.7,0,20.4-4,30.5-8l9.5,29.8c-14.9,8-34.5,13.8-55.6,13.8C1551.1,348,1538.7,330.5,1543.1,305.1z" fill="#000000"/>
		<path class="st0" d="M1697.2,292.7c-1.8,10.2-2.2,18.9,13.8,18.9c18.9,0,45.1-8.7,68-20.4l9.5,33.4    c-21.4,13.1-54.1,23.3-83.6,23.3c-46.9,0-56.3-26.2-49.8-63.2l9.4-53.8c7.6-41.8,27.3-67.2,80.7-67.2c33.8,0,56.7,17.4,56.7,46.2    c0,31.6-20.7,49.8-69,64.7c-21.4,6.5-25.8,7.6-34.2,9.8L1697.2,292.7z M1760,211.7c0-8-6.9-13.8-18.5-13.8    c-20,0-29.8,12.3-32.7,29.1l-3.3,18.2c6.2-1.8,8.7-2.5,26.5-8C1751.7,231,1760,223.3,1760,211.7z" fill="#000000"/>
		<path class="st0" d="M1854.9,95.1l44.7-6.2l-45.1,255.4h-43.6L1854.9,95.1z" fill="#000000"/>
	</g>
	<g>
		<path class="st0" d="M1127.1,538l2.8-9.2c12.2,3.7,24.6,5.9,35.2,5.9c23.4,0,29.9-6.7,33-24.4c1-5.1,1.6-9,1.6-12.2    c0-9-5.5-11.2-26.2-16.5c-22.4-5.9-29.5-12-29.5-26c0-3.7,0.4-8.3,1.4-13.4c4.5-25.4,14.6-32.4,45.4-32.4c8.1,0,22,1.4,32.6,4.3    l-2,9.4c-10.8-2.6-23.4-3.7-31.1-3.7c-26,0-30.7,5.1-33.8,22.6c-1,5.3-1.6,9.2-1.6,12.6c0,9.8,5.9,11.8,24.8,17.1    c24.2,6.7,31.1,11.8,31.1,24.6c0,3.7-0.6,8.3-1.6,13.6c-3.9,22.6-11,34.4-45.8,34.4C1152.1,544.7,1138.3,542.3,1127.1,538z" fill="#000000"/>
		<path class="st0" d="M1232.9,517.9c0-2.8,0.2-5.7,0.8-8.7l5.1-29.1c3.7-21,14.7-35.2,43.1-35.2c21.2,0,31.9,11,31.9,26.9    c0,2.4-0.4,4.7-0.8,7.3l-5.5,31.3c-3.7,21.2-15.5,34.2-43.1,34.2C1241.7,544.7,1232.9,533.3,1232.9,517.9z M1301.9,479.2    c0.4-2.4,0.6-4.5,0.6-6.7c0-11.8-6.9-17.7-22.4-17.7c-18.1,0-27.3,8.6-30.3,25.4l-5.3,30.1c-0.4,2.6-0.6,5.1-0.6,7.3    c0,11.2,6.1,17.3,22.2,17.3c17.7,0,27.3-8.3,30.3-24.6L1301.9,479.2z" fill="#000000"/>
		<path class="st0" d="M1320.6,576.3c7.7-6.5,11.4-12.2,13.8-25.8l16.5-94.2H1333l1.6-9.4h18.1l3.1-18.1c2.9-16.7,11.8-25,27.9-25    c6.5,0,14.2,1.8,18.7,3.7l-2.4,8.5c-6.1-2-10.8-2.8-16.1-2.8c-11,0-15.3,5.7-17.1,15.5l-3.1,18.1h29.3l-2.6,9.4h-28.5l-16.7,95.6    c-2.4,13.6-7.3,23-18.1,31.5L1320.6,576.3z" fill="#000000"/>
		<path class="st0" d="M1402.4,531.9c0-1.2,0.2-2.4,0.4-3.7l12.6-71.8h-18.3l1.6-9.4h18.5l4.1-23.4l11.2-1.6l-4.3,25h28.7l-2.2,9.4    h-28.3L1414,527c-0.2,1.4-0.4,2.6-0.4,3.5c0,3.7,2,4.7,6.5,4.7c5.3,0,12-1.6,19.1-4.5l2.8,7.5c-7.3,4.1-15.5,6.5-23.8,6.5    C1408.5,544.7,1402.4,540.5,1402.4,531.9z" fill="#000000"/>
		<path class="st0" d="M1527.7,446.1l17.9,89.9l22.2-54.9c2.9-7.7,3.3-13.6,3.3-19.5c0-4.9-0.6-9.6-1.6-14l10.4-1.6    c0.8,4.7,1.4,9.8,1.4,14.9c0,7.3-0.8,14-3.7,22l-24.2,59.6h-16.9l-11.8-60.4l-32.6,60.4h-16.7c-0.2-39.3-3.3-69.4-9.4-95l10.2-1.6    c4.5,23,8.7,50.7,8.7,89.9l37.2-68.2l-3.7-20L1527.7,446.1z" fill="#000000"/>
		<path class="st0" d="M1648.8,528.7c-11,9.4-24.8,15.9-38.5,15.9c-12.2,0-18.9-4.3-18.9-16.1c0-2.2,0.2-4.5,0.6-7.1l7.3-41.1    c4.5-25.2,14.9-35.4,40.7-35.4c8.9,0,21.8,2.2,33,6.3l-16.1,91.4h-10L1648.8,528.7z M1660.8,457.9c-5.3-1.6-14.5-3.1-22.4-3.1    c-17.9,0-24.8,6.5-28.5,27.5l-6.9,39.1c-0.4,2.4-0.6,4.1-0.6,5.7c0,6.1,2.9,7.7,8.8,7.7c12,0,26.9-7.9,39.3-18.9L1660.8,457.9z" fill="#000000"/>
		<path class="st0" d="M1740.7,455.8c-10.4,6.1-20.5,12.6-30.7,19.3l-11.8,67.6h-11l16.5-95l10.2-1.6l-2.4,16.9    c7.3-5.5,19.9-13.8,28.5-18.1L1740.7,455.8z" fill="#000000"/>
		<path class="st0" d="M1756.4,517.7c-0.2,1.8-0.4,3.5-0.4,5.1c0,8.1,3.1,12.2,16.5,12.2c11,0,22-3.7,33.8-9.2l2.8,8.5    c-11.6,6.1-25,10.4-38,10.4c-17.9,0-26.2-7.1-26.2-21.6c0-2.9,0.4-6.1,1-9.4l5.7-32.3c4.3-24.4,16.9-36.4,41.5-36.4    c15.5,0,25.4,7.9,25.4,22.2c0,15.3-10.2,23.6-36.4,30.9c-18.5,5.1-23.4,6.5-23.4,6.5L1756.4,517.7z M1807.9,467    c0-8.7-5.7-12.6-15.7-12.6c-17.1,0-26.1,8.8-29.5,27.7l-2.2,12.2c0,0,3.7-1,22.2-5.9C1800.6,483.7,1807.9,477.2,1807.9,467z" fill="#000000"/>
	</g>
</g>
</svg>