<?xml version="1.0"?>
<svg xmlns="http://www.w3.org/2000/svg" xmlns:xlink="http://www.w3.org/1999/xlink" xmlns:svgjs="http://svgjs.com/svgjs" version="1.1" width="512" height="512" x="0" y="0" viewBox="0 0 511.964 511.964" style="enable-background:new 0 0 512 512" xml:space="preserve" class=""><g><g xmlns="http://www.w3.org/2000/svg"><path d="m150.113 116.624c32.136 0 58.28-26.144 58.28-58.28 0-32.135-26.144-58.279-58.28-58.279s-58.28 26.144-58.28 58.279c0 32.136 26.144 58.28 58.28 58.28zm0-86.559c15.594 0 28.28 12.686 28.28 28.279 0 15.594-12.686 28.28-28.28 28.28s-28.28-12.686-28.28-28.28c0-15.593 12.686-28.279 28.28-28.279z" fill="#ffffff" data-original="#000000" style=""/><path d="m476.97 260.575v-80.084h-166.138v80.084h-66.886v-73.049c0-39.095-31.806-70.9-70.9-70.9h-45.866c-39.095 0-70.9 31.806-70.9 70.9v73.049h-56.28l.063 251.324h511.9v-251.324zm-136.138-50.084h106.138v50.084h-106.138zm-254.552-22.965c0-22.553 18.348-40.9 40.9-40.9h7.933v63.266h30v-63.266h7.933c22.553 0 40.9 18.348 40.9 40.9v73.049h-127.666zm395.684 103.049v30.004h-451.949l-.008-30.004zm-451.908 191.324-.033-131.32h451.941v131.32z" fill="#ffffff" data-original="#000000" style=""/></g></g></svg>
